<?xml version="1.0"?>
<svg xmlns="http://www.w3.org/2000/svg" xmlns:xlink="http://www.w3.org/1999/xlink" version="1.1" viewBox="0 0 210 210" width="32px" height="32px"><g fill="none" fill-rule="nonzero" stroke="none" stroke-width="1" stroke-linecap="butt" stroke-linejoin="miter" stroke-miterlimit="10" stroke-dasharray="" stroke-dashoffset="0" font-family="none" font-weight="none" font-size="none" text-anchor="none" style="mix-blend-mode: normal"><path d="M0,210v-210h210v210z" fill="none"/><g fill="#e74c3c"><g id="surface1"><path d="M98.4375,6.5625c-3.28125,0 -6.22925,1.64063 -8.20312,4.26819l-9.84375,15.41931h-37.73437c-5.57556,0 -9.84375,4.26819 -9.84375,9.84375v19.6875c0,5.57556 4.26819,9.84375 9.84375,9.84375h0.32043l11.48438,109.92188c0.98694,8.53638 7.88269,14.76563 16.40625,14.76563h81.39038c8.52356,0 15.41931,-6.22925 16.40625,-14.76562l11.48438,-109.92187h0.32043c5.57556,0 9.84375,-4.26819 9.84375,-9.84375v-19.6875c0,-5.57556 -4.26819,-9.84375 -9.84375,-9.84375h-37.73437l-10.16418,-15.41931c-1.64062,-2.62756 -4.92187,-4.26819 -8.20312,-4.26819zM98.75793,13.125h25.92957c0.98694,0 1.97388,0.65369 2.62756,1.30737l7.53662,11.81763h-46.57837l7.53662,-11.81763c0.65369,-0.65369 1.64063,-1.30737 2.948,-1.30737zM42.65625,32.8125h137.8125c1.97388,0 3.28125,1.30737 3.28125,3.28125v19.6875c0,1.97388 -1.30737,3.28125 -3.28125,3.28125h-137.8125c-1.97388,0 -3.28125,-1.30737 -3.28125,-3.28125v-19.6875c0,-1.97388 1.30737,-3.28125 3.28125,-3.28125zM52.5,39.375c-1.97388,0 -3.28125,1.30737 -3.28125,3.28125v6.5625c0,1.97388 1.30737,3.28125 3.28125,3.28125c1.97388,0 3.28125,-1.30737 3.28125,-3.28125v-6.5625c0,-1.97388 -1.30737,-3.28125 -3.28125,-3.28125zM68.90625,39.375c-1.97388,0 -3.28125,1.30737 -3.28125,3.28125v6.5625c0,1.97388 1.30737,3.28125 3.28125,3.28125c1.97388,0 3.28125,-1.30737 3.28125,-3.28125v-6.5625c0,-1.97388 -1.30737,-3.28125 -3.28125,-3.28125zM85.3125,39.375c-1.97388,0 -3.28125,1.30737 -3.28125,3.28125v6.5625c0,1.97388 1.30737,3.28125 3.28125,3.28125c1.97388,0 3.28125,-1.30737 3.28125,-3.28125v-6.5625c0,-1.97388 -1.30737,-3.28125 -3.28125,-3.28125zM101.71875,39.375c-1.97388,0 -3.28125,1.30737 -3.28125,3.28125v6.5625c0,1.97388 1.30737,3.28125 3.28125,3.28125c1.97388,0 3.28125,-1.30737 3.28125,-3.28125v-6.5625c0,-1.97388 -1.30737,-3.28125 -3.28125,-3.28125zM121.40625,39.375c-1.97388,0 -3.28125,1.30737 -3.28125,3.28125v6.5625c0,1.97388 1.30737,3.28125 3.28125,3.28125c1.97388,0 3.28125,-1.30737 3.28125,-3.28125v-6.5625c0,-1.97388 -1.30737,-3.28125 -3.28125,-3.28125zM137.8125,39.375c-1.97388,0 -3.28125,1.30737 -3.28125,3.28125v6.5625c0,1.97388 1.30737,3.28125 3.28125,3.28125c1.97388,0 3.28125,-1.30737 3.28125,-3.28125v-6.5625c0,-1.97388 -1.30737,-3.28125 -3.28125,-3.28125zM154.21875,39.375c-1.97388,0 -3.28125,1.30737 -3.28125,3.28125v6.5625c0,1.97388 1.30737,3.28125 3.28125,3.28125c1.97388,0 3.28125,-1.30737 3.28125,-3.28125v-6.5625c0,-1.97388 -1.30737,-3.28125 -3.28125,-3.28125zM170.625,39.375c-1.97388,0 -3.28125,1.30737 -3.28125,3.28125v6.5625c0,1.97388 1.30737,3.28125 3.28125,3.28125c1.97388,0 3.28125,-1.30737 3.28125,-3.28125v-6.5625c0,-1.97388 -1.30737,-3.28125 -3.28125,-3.28125zM49.53918,65.625h124.04663l-11.48437,109.26819c-0.6665,4.92188 -4.60144,8.85681 -9.84375,8.85681h-81.39038c-4.92187,0 -9.17725,-3.93494 -9.84375,-8.85681zM111.5625,82.03125c-1.97388,0 -3.28125,1.30737 -3.28125,3.28125v65.625c0,1.97388 1.30737,3.28125 3.28125,3.28125c1.97388,0 3.28125,-1.30737 3.28125,-3.28125v-65.625c0,-1.97388 -1.30737,-3.28125 -3.28125,-3.28125zM82.03125,82.35168c-1.97388,0 -3.28125,1.64063 -2.96082,3.28125l3.28125,65.625c-0.32043,1.64063 1.32019,2.96082 2.96082,2.96082c1.97388,0 3.28125,-1.64062 3.28125,-3.28125l-3.28125,-65.625c0,-1.97388 -1.64062,-3.28125 -3.28125,-2.96082zM141.41418,82.35168c-1.96106,0 -3.28125,1.32019 -3.28125,2.96082l-3.28125,65.625c-0.32043,1.64063 0.98694,3.28125 2.96082,3.28125c1.97388,0 3.28125,-1.32019 3.28125,-2.96082l3.28125,-65.625c0,-1.96106 -1.32019,-3.28125 -2.96082,-3.28125zM75.46875,170.625c-1.97388,0 -3.28125,1.30737 -3.28125,3.28125c0,1.97388 1.30737,3.28125 3.28125,3.28125h45.9375c1.97388,0 3.28125,-1.30737 3.28125,-3.28125c0,-1.97388 -1.30737,-3.28125 -3.28125,-3.28125zM134.53125,170.625c-1.97388,0 -3.28125,1.30737 -3.28125,3.28125c0,1.97388 1.30737,3.28125 3.28125,3.28125h13.125c1.97388,0 3.28125,-1.30737 3.28125,-3.28125c0,-1.97388 -1.30737,-3.28125 -3.28125,-3.28125z"/></g></g></g></svg>
